<?xml version="1.0" encoding="UTF-8" standalone="no"?>
<svg
   xmlns:dc="http://purl.org/dc/elements/1.1/"
   xmlns:cc="http://creativecommons.org/ns#"
   xmlns:rdf="http://www.w3.org/1999/02/22-rdf-syntax-ns#"
   xmlns:svg="http://www.w3.org/2000/svg"
   xmlns="http://www.w3.org/2000/svg"
   xmlns:sodipodi="http://sodipodi.sourceforge.net/DTD/sodipodi-0.dtd"
   xmlns:inkscape="http://www.inkscape.org/namespaces/inkscape"
   width="64"
   height="64"
   viewBox="0 0 16.933333 16.933334"
   version="1.1"
   id="svg8"
   inkscape:version="1.0.1 (3bc2e813f5, 2020-09-07)"
   sodipodi:docname="admin_system_sysadmin_administrator_manager_supervisor.svg">
  <defs
     id="defs2">
    <pattern
       y="0"
       x="0"
       height="6"
       width="6"
       patternUnits="userSpaceOnUse"
       id="EMFhbasepattern" />
  </defs>
  <sodipodi:namedview
     id="base"
     pagecolor="#ffffff"
     bordercolor="#666666"
     borderopacity="1.0"
     inkscape:pageopacity="0.0"
     inkscape:pageshadow="2"
     inkscape:zoom="5.6568545"
     inkscape:cx="8.4559044"
     inkscape:cy="38.297012"
     inkscape:document-units="px"
     inkscape:current-layer="layer1"
     showgrid="true"
     units="px"
     inkscape:window-width="1366"
     inkscape:window-height="716"
     inkscape:window-x="-8"
     inkscape:window-y="-8"
     inkscape:window-maximized="1"
     inkscape:document-rotation="0">
    <inkscape:grid
       type="xygrid"
       id="grid812"
       spacingx="0.13229167"
       spacingy="0.13229167"
       empspacing="4" />
  </sodipodi:namedview>
  <metadata
     id="metadata5">
    <rdf:RDF>
      <cc:Work
         rdf:about="">
        <dc:format>image/svg+xml</dc:format>
        <dc:type
           rdf:resource="http://purl.org/dc/dcmitype/StillImage" />
        <dc:title />
      </cc:Work>
    </rdf:RDF>
  </metadata>
  <g
     inkscape:label="Layer 1"
     inkscape:groupmode="layer"
     id="layer1"
     transform="translate(0,-280.06665)">
    <g
       id="g10311"
       style="display:inline;fill:#3b3c3d;fill-opacity:1"
       transform="matrix(0.26458334,0,0,0.26458334,-1594.3792,-220.62086)">
      <path
         style="color:#000000;font-style:normal;font-variant:normal;font-weight:normal;font-stretch:normal;font-size:medium;line-height:normal;font-family:sans-serif;font-variant-ligatures:normal;font-variant-position:normal;font-variant-caps:normal;font-variant-numeric:normal;font-variant-alternates:normal;font-feature-settings:normal;text-indent:0;text-align:start;text-decoration:none;text-decoration-line:none;text-decoration-style:solid;text-decoration-color:#000000;letter-spacing:normal;word-spacing:normal;text-transform:none;writing-mode:lr-tb;direction:ltr;text-orientation:mixed;dominant-baseline:auto;baseline-shift:baseline;text-anchor:start;white-space:normal;shape-padding:0;clip-rule:nonzero;display:inline;overflow:visible;visibility:visible;opacity:1;isolation:auto;mix-blend-mode:normal;color-interpolation:sRGB;color-interpolation-filters:linearRGB;solid-color:#000000;solid-opacity:1;vector-effect:none;fill:#3b3c3d;fill-opacity:1;fill-rule:nonzero;stroke:none;stroke-width:2;stroke-linecap:butt;stroke-linejoin:round;stroke-miterlimit:4;stroke-dasharray:none;stroke-dashoffset:0;stroke-opacity:1;paint-order:fill markers stroke;color-rendering:auto;image-rendering:auto;shape-rendering:auto;text-rendering:auto;enable-background:accumulate"
         d="m 6045.8975,1905.3676 c -0.3836,0.013 -0.7716,0.049 -1.1639,0.1093 -1.129,0.1505 -2.3,0.4785 -3.4803,0.9937 -3.6569,1.5962 -6.2457,5.0339 -6.2457,10.38 v 4.5233 c 0,0.8782 0.3824,1.6254 0.8437,2.2665 0.3848,0.5347 0.8605,0.9423 1.3359,1.3041 1.0242,2.0202 2.2352,3.8041 3.6716,5.1305 0.047,0.043 0.096,0.081 0.1426,0.123 v 2.5028 l -6.8687,2.7506 0.039,-0.014 c -1.0255,0.3616 -2.0505,0.9159 -2.8553,1.7316 -0.8047,0.8159 -1.3814,1.9547 -1.3104,3.2602 v 2.9401 5.9934 c 10e-5,0.552 0.4478,0.9995 0.9999,0.9995 h 29.9943 c 0.5521,0 0.9998,-0.4475 0.9999,-0.9995 v -5.9934 -2.9947 c 0,-1.2774 -0.559,-2.3859 -1.3457,-3.1998 -0.7867,-0.8136 -1.7893,-1.3739 -2.8201,-1.7374 l 0.039,0.014 -6.8726,-2.7526 v -2.4774 c 0.053,-0.047 0.1093,-0.092 0.1621,-0.1405 1.4364,-1.3264 2.6434,-3.1103 3.6677,-5.1305 0.4753,-0.3618 0.9511,-0.7694 1.3359,-1.3041 0.4613,-0.6411 0.8456,-1.3883 0.8456,-2.2665 v -0.039 -7.0026 c 0,-1.5352 -0.3316,-2.9934 -1.1542,-4.1348 -0.7307,-1.0139 -1.9038,-1.7166 -3.3123,-1.8606 -1.5315,-2.0156 -3.9591,-3.0663 -6.6442,-2.9751 z m 1.9706,11.2506 c 0.8163,0.7305 1.5542,1.202 2.3182,1.4565 0.6061,0.202 1.2129,0.1732 1.8163,0.1952 v 1.1089 c 1e-4,0.552 0.4478,0.9994 1,0.9995 h 0.9999 c 0.5635,0 0.9988,0.4346 0.9999,0.9976 0,0.226 -0.1578,0.6699 -0.4667,1.0991 -0.3089,0.4291 -0.7458,0.84 -1.0879,1.0679 -0.1448,0.096 -0.2618,0.2289 -0.3397,0.3845 -0.9618,1.9228 -2.0946,3.5569 -3.3123,4.6814 -1.211,1.1181 -2.4668,1.7237 -3.7928,1.7609 -1.326,-0.038 -2.5799,-0.6428 -3.7908,-1.7609 -1.218,-1.1245 -2.3525,-2.7586 -3.3142,-4.6814 -0.078,-0.1556 -0.195,-0.2881 -0.3398,-0.3845 -0.3421,-0.2279 -0.779,-0.6388 -1.0879,-1.0679 -0.3088,-0.4292 -0.4667,-0.8731 -0.4667,-1.0991 0,-0.563 0.4365,-0.9976 0.9999,-0.9976 h 0.9999 c 0.5523,-10e-5 0.9999,-0.4475 1,-0.9995 v -1.0581 c 2.5169,-0.02 5.1869,-0.1686 7.8647,-1.7025 z m -4.8668,14.9639 c 0.9025,0.4578 1.868,0.7406 2.8884,0.7789 0.033,0 0.066,0.01 0.1,0.01 0.014,3e-4 0.027,3e-4 0.041,0 0.015,-4e-4 0.03,0 0.045,0 0,0 -7e-4,10e-5 0.01,0 h 0.012 c 1.0257,-0.033 1.9965,-0.3132 2.9041,-0.7711 v 1.7747 l -2.9998,3.9941 -2.9998,-3.9981 z m -4.8142,4.3984 2.9197,5.8333 c 0.3053,0.6103 1.1189,0.7423 1.6015,0.2596 l 0.293,-0.2928 1.7831,1.7824 -2.4023,4.8025 h -10.3782 v -4.9958 -2.9947 c 5e-4,-0.018 5e-4,-0.037 0,-0.055 -0.037,-0.6891 0.2213,-1.2253 0.7362,-1.7472 0.515,-0.522 1.295,-0.9683 2.0976,-1.2514 0.012,0 0.025,-0.01 0.037,-0.014 z m 15.626,0 3.3142,1.3276 c 0.013,0 0.026,0.01 0.039,0.014 0.7973,0.2812 1.5427,0.7223 2.0487,1.2455 0.5058,0.5233 0.7831,1.0897 0.7831,1.8098 v 2.9947 4.9957 h -10.3782 l -2.4022,-4.8025 1.7831,-1.7824 0.2929,0.2909 c 0.482,0.4829 1.2954,0.352 1.6015,-0.2577 z m -7.812,2.8054 1.5838,1.5833 -1.5838,1.5831 -1.5839,-1.5831 z"
         id="path24647-4"
         inkscape:connector-curvature="0"
         sodipodi:nodetypes="cccsscccccccccccccccsccccccccscscccccccccsccccccccccssccccccccccccccccccccccccccccccccccsccccccccccccc" />
      <path
         style="fill:#3b3c3d;fill-opacity:1;stroke:none;stroke-width:2px;stroke-linecap:butt;stroke-linejoin:miter;stroke-opacity:1"
         d="m 6064.7351,1922.166 1.2307,1.8639 -0.2949,2.247 -1.6709,1.4818 0.7755,2.8942 2.188,0.4478 1.3788,1.7985 -0.1338,2.2296 2.5952,1.4983 1.8639,-1.2307 2.247,0.2949 1.4818,1.6709 2.8942,-0.7755 0.4478,-2.188 1.7985,-1.3788 2.2296,0.1338 1.4983,-2.5952 -1.2306,-1.8639 0.2948,-2.247 1.671,-1.4818 -0.7755,-2.8942 -2.188,-0.4478 -1.3789,-1.7985 0.1339,-2.2296 -2.5952,-1.4983 -1.864,1.2307 -2.247,-0.2949 -1.4817,-1.671 -2.8943,0.7756 -0.4478,2.1879 -1.7985,1.3789 -2.2295,-0.1338 z m 5.9396,1.699 c 1.3791,-2.3888 4.4337,-3.2072 6.8225,-1.8281 2.3888,1.3792 3.2073,4.4338 1.8281,6.8226 -1.3792,2.3887 -4.4338,3.2072 -6.8225,1.8281 -2.3888,-1.3792 -3.2073,-4.4338 -1.8281,-6.8226 z"
         id="path15582-7-0"
         inkscape:connector-curvature="0" />
      <path
         style="fill:#3b3c3d;fill-opacity:1;stroke:none;stroke-width:2px;stroke-linecap:round;stroke-linejoin:round;stroke-opacity:1"
         d="m 6065.0289,1896.3624 -2.0703,0.8203 -0.1426,1.6524 -1.209,1.1718 -1.6582,0.092 -0.8828,2.0449 1.0664,1.2696 -0.025,1.6836 -1.1074,1.2363 0.8203,2.0703 1.6524,0.1445 1.1718,1.209 0.092,1.6563 2.043,0.8847 1.2715,-1.0683 1.6836,0.025 1.2363,1.1074 2.0703,-0.8203 0.1426,-1.6524 1.209,-1.1718 1.6582,-0.092 0.8828,-2.0449 -1.0664,-1.2696 0.025,-1.6836 1.1074,-1.2363 -0.8203,-2.0703 -1.6524,-0.1426 -1.1718,-1.2109 -0.092,-1.6563 -2.043,-0.8847 -1.2715,1.0683 -1.6836,-0.025 z m 1.9883,5.9961 c 0.2601,0 0.5235,0.056 0.7773,0.166 1.0152,0.4392 1.4822,1.6176 1.043,2.6328 -0.4392,1.0148 -1.6176,1.4822 -2.6328,1.043 -1.0152,-0.4392 -1.4822,-1.6176 -1.043,-2.6328 0.3294,-0.7611 1.075,-1.2153 1.8555,-1.209 z"
         id="path15588-5-1"
         inkscape:connector-curvature="0" />
    </g>
  </g>
</svg>
